<svg width="38" height="38" viewBox="0 0 38 38" fill="none" xmlns="http://www.w3.org/2000/svg">
    <g clip-path="url(#clip0_3_30)">
        <path fill-rule="evenodd" clip-rule="evenodd"
            d="M21.4611 1.32957L20.3586 0.490092C19.5565 -0.12072 18.4436 -0.120721 17.6414 0.490091L0.925081 13.219C0.179312 13.7869 -0.132108 14.7583 0.145027 15.6522L6.57429 36.3904C6.8642 37.3256 7.73132 37.9633 8.71294 37.9633H29.2871C30.2687 37.9633 31.1358 37.3256 31.4257 36.3904L37.855 15.6522C38.1321 14.7583 37.8207 13.7869 37.075 13.219L35.5341 12.0457L33.7618 17.6055L28.893 33.3939C28.7027 34.0108 28.1312 34.4318 27.484 34.4318H10.4069C9.75963 34.4318 9.1881 34.0108 8.99783 33.3939L3.66878 16.113C3.4878 15.5261 3.6917 14.889 4.18012 14.5151L18.0477 3.89921C18.1035 3.85653 18.1616 3.81834 18.2214 3.78465L21.4611 1.32957Z"
            fill="white" />
        <path fill-rule="evenodd" clip-rule="evenodd"
            d="M18.3784 7.79948C18.8095 7.46984 19.4089 7.46984 19.84 7.79948L30.1815 15.7058C30.58 16.0104 30.7463 16.5301 30.5986 17.0087L26.6229 29.8841C26.4678 30.3866 26.0022 30.7294 25.475 30.7294H12.7434C12.2162 30.7294 11.7506 30.3866 11.5955 29.8841L10.9159 27.6834H14.2869C14.3261 27.6914 14.3665 27.6956 14.4077 27.6956H23.5923C23.8572 27.6956 24.0908 27.5226 24.1673 27.2698L27.0336 17.8013C27.1051 17.5648 27.0237 17.3087 26.8286 17.1566L19.37 11.3401C19.1526 11.1706 18.8474 11.1706 18.63 11.3401L11.789 16.6749L8.3071 19.2345L7.61983 17.0087C7.47209 16.5301 7.63844 16.0104 8.03695 15.7058L18.3784 7.79948Z"
            fill="white" />
    </g>
    <defs>
        <clipPath id="clip0_3_30">
            <rect width="38" height="38" fill="white" />
        </clipPath>
    </defs>
</svg>